<svg id="Layer_1" enable-background="new 0 0 512 512" height="512" viewBox="0 0 512 512" width="512" xmlns="http://www.w3.org/2000/svg"><g><path d="m258.389 466.586 186.377-43.401c35.123-42.401 56.236-96.827 56.236-156.187 0-135.311-109.691-245.002-245.002-245.002s-245.002 109.691-245.002 245.002c0 59.929 21.529 114.822 57.259 157.396z" fill="#816ae2"/><g><path d="m117.586 437.535c10.088 7.834 22.538 12.089 35.36 12.089s25.271-4.255 35.359-12.089c7.456-5.79 15.408-13.672 22.376-23.59-1.948-.566-3.918-1.1-5.913-1.6-2.151-.539-4.041-1.833-5.262-3.554-5.626-7.937-7.185-20.207-7.49-29.106-3.947 4.597-8.089 8.441-12.046 11.514-15.872 12.326-38.197 12.31-54.049 0-3.958-3.073-8.099-6.918-12.046-11.514-.314 9.096-1.933 21.716-7.87 29.629-1.013 1.35-2.574 2.453-4.445 2.917-2.141.53-4.253 1.108-6.347 1.717 6.966 9.917 14.917 17.797 22.373 23.587z" fill="#fcad6d"/></g><path d="m151.507 400.408c-9.066-.294-18.057-3.362-25.587-9.209-3.958-3.073-8.099-6.918-12.046-11.514-.314 9.096-1.933 21.716-7.87 29.629-1.013 1.35-2.574 2.453-4.445 2.917-2.141.53-4.253 1.108-6.347 1.717 6.966 9.916 14.917 17.797 22.373 23.586 4.865 3.777 10.281 6.713 16.021 8.751 11.206-14.787 15.921-33.143 17.901-45.877z" fill="#fd995b"/><path d="m224.786 464.23c9.029-18.058 23.439-25.832 33.603-29.169-3.065-.899-5.671-2.602-10.026-5.057-12.377-6.98-25.194-12.546-39.159-16.461-6.821 9.804-14.648 17.57-21.977 23.261-9.781 7.595-21.851 11.721-34.282 11.721s-24.501-4.125-34.282-11.721c-7.331-5.692-15.16-13.46-21.981-23.268-9.935 2.79-19.352 6.46-28.425 10.858 36.713 43.745 88.428 74.469 147.226 84.258 1.913-15.813 4.91-35.637 9.303-44.422z" fill="#3c58a0"/><path d="m111.297 464.701c9.796-4.644 17.292-11.539 23.021-19.368-5.61-1.977-10.905-4.84-15.656-8.529-7.331-5.692-15.16-13.46-21.981-23.268-9.935 2.79-19.352 6.46-28.425 10.858 12.669 15.095 27.126 28.638 43.041 40.307z" fill="#1c2e7a"/><path d="m256.339 0h107.483c11.434 0 20.79 9.355 20.79 20.789v85.341c0 11.434-9.355 20.79-20.79 20.79-2.923 0-4.543 3.356-2.755 5.669 1.904 2.464 4.039 4.76 6.409 6.848 4.422 3.894 1.934 11.879-3.673 11.861-14.25-.044-27.604-7.277-36.694-19.058-2.555-3.311-6.442-5.32-10.624-5.32h-60.146c-11.434 0-20.789-9.355-20.789-20.79v-85.341c0-11.434 9.355-20.789 20.789-20.789z" fill="#e9efff"/><path d="m310.081 0h-53.741c-11.434 0-20.789 9.355-20.789 20.789v85.341c0 11.434 9.355 20.79 20.789 20.79h60.146c-26.823-19.135-6.404-53.193-6.404-53.193v-22.166c-26.93-26.929-.001-51.561-.001-51.561z" fill="#bec8f7"/><circle cx="348.279" cy="62.644" fill="#4fabf7" r="11.083"/><circle cx="310.471" cy="62.644" fill="#4fabf7" r="11.083"/><circle cx="272.663" cy="62.644" fill="#4fabf7" r="11.083"/><path d="m430.354 303.58c.145 7.935-.639 16.061-1.487 21.48-4.004 17.647-9.785 33.012-17.179 45.666-3.353 5.738-7.535 10.953-12.433 15.502l-.627.583v3.952c0 4.097 1.592 7.885 4.302 11.374 15.173-.917 28.072-3.991 38.24-7.492 12.239-4.215 17.596-18.723 10.909-29.807-15.745-26.098-13.399-61.258-13.399-61.258z" fill="#2a428c"/><path d="m452.079 364.838c-1.477-2.448-2.795-4.977-3.971-7.548-18.325 10.63-25.648-4.432-25.648-4.432s-.473-.694-1.341-1.985c-2.769 7.197-5.915 13.835-9.432 19.852-3.353 5.738-7.536 10.953-12.433 15.502l-.627.583v3.952c0 4.097 1.592 7.886 4.302 11.374 15.173-.917 28.072-3.991 38.24-7.492 12.24-4.214 17.597-18.723 10.91-29.806z" fill="#1c2e7a"/><path d="m297.844 394.645c10.167 3.501 23.067 6.574 38.24 7.492 2.711-3.489 4.303-7.278 4.303-11.374v-4.854l-.6-.579c-4.482-4.327-8.344-9.24-11.478-14.603-7.398-12.663-13.177-28.021-17.175-45.648-.876-5.111-1.667-13.371-1.491-21.497h-9.308s2.346 35.159-13.399 61.258c-6.688 11.081-1.33 25.59 10.908 29.805z" fill="#1c2e7a"/><g><path d="m405.551 202.258c-9.434-4.867-21.164-8.245-35.553-8.245s-26.119 3.377-35.553 8.245c-20.651 10.654-33.376 31.809-33.376 54.636v28.159l.001.009c3.257-.076 6.86.991 9.181 2.538.856-2.799 2.026-5.222 3.609-7.005 1.424-1.605 2.318-3.591 2.381-5.715.243-8.129 2.376-27.34 16.691-34.693 3.988-2.049 8.861-.486 11.101 3.398 8.623 14.95 28.737 34.651 73.467 26.255 3.172-.595 6.153 1.763 6.252 4.99.001.017.001.034.001.051.063 2.124.957 4.11 2.382 5.715 1.582 1.783 2.753 4.207 3.608 7.005 2.321-1.547 5.924-2.614 9.181-2.538l.001-.009v-28.159c.002-22.828-12.723-43.983-33.374-54.637z" fill="#2a428c"/></g><path d="m369.137 264.819c-22.17-42.353 19.483-68.741 19.483-68.741-5.643-1.305-11.833-2.064-18.623-2.064-14.389 0-26.119 3.377-35.553 8.245-20.651 10.654-33.376 31.809-33.376 54.636v28.159l.001.009c3.257-.076 6.86.991 9.181 2.538.856-2.799 2.026-5.222 3.608-7.005 1.424-1.605 2.318-3.591 2.382-5.715.243-8.129 2.376-27.34 16.691-34.693 3.988-2.049 8.861-.486 11.101 3.398 4.661 8.082 12.693 17.545 26.145 23.214-.347-.662-.694-1.321-1.04-1.981z" fill="#1c2e7a"/><path d="m309.684 325.353s-3.739-23.661.567-37.752c-3.907-2.604-11.456-3.876-14.851-.557-6.951 6.795-1.858 17.057.579 23.539.748 1.99 1.231 4.003 1.449 6.02.474 4.382 2.85 10.796 12.702 10.645-.148-.632-.3-1.253-.446-1.895z" fill="#fd995b"/><path d="m444.595 287.044c-3.395-3.319-10.944-2.048-14.851.557 4.306 14.091.567 37.752.567 37.752-.146.642-.298 1.263-.447 1.895 9.852.151 12.227-6.263 12.702-10.645.218-2.017.701-4.03 1.449-6.02 2.438-6.482 7.531-16.744.58-23.539z" fill="#fcad6d"/><g><g><path d="m139.878 194.829c-39.239 5.346-42.969 27.594-42.986 35.756-.004 1.712-.952 3.298-2.491 4.047-20.411 9.929-9.406 57.784-9.406 57.784 2.05.137 5.124 1.896 6.724 2.671.392-2.439 1.032-4.839 1.935-7.16.688-1.768 1.549-3.555 2.625-5.242 1.867-2.928 2.717-6.383 2.463-9.837-.734-9.983-1.309-28.727 11.869-34.656 11.164-5.023 24.859-2.115 33.592.789 5.672 1.886 11.815 1.886 17.487 0 8.733-2.904 22.428-5.813 33.592-.789 13.14 5.912 12.601 24.561 11.875 34.571-.252 3.48.575 6.97 2.456 9.921 1.111 1.742 1.992 3.589 2.691 5.413.869 2.268 1.487 4.61 1.869 6.99 2.017-.977 5.829-2.97 8.295-2.622.302-10.464 1.268-21.744 1.268-21.744 11.627-56.953-41.608-81.649-83.858-75.892z" fill="#2a428c"/><path d="m139.878 194.829c-39.239 5.346-42.969 27.594-42.986 35.756-.004 1.712-.952 3.298-2.491 4.047-20.411 9.929-9.406 57.784-9.406 57.784 2.05.137 5.124 1.896 6.724 2.671.392-2.439 1.032-4.839 1.935-7.16.688-1.768 1.549-3.555 2.625-5.242 1.867-2.928 2.717-6.383 2.463-9.837-.734-9.983-1.309-28.727 11.869-34.656 11.164-5.023 24.859-2.115 33.592.789 2.389.794 4.862 1.234 7.348 1.359-.381-.653-.788-1.302-1.243-1.942-16.834-23.66 6.566-40.901 11.082-43.914-7.243-.721-14.527-.607-21.512.345z" fill="#1c2e7a"/></g><path d="m225.948 293.824c-3.056-2.801-9.144-1.381-11.776.334.577 3.591.61 7.265.111 10.892l-3.106 22.623c0 1.824-.057 3.613-.163 5.371 7.574 2.285 11.336-4.515 11.97-9.182.273-2.009.719-3.989 1.338-5.921 2.015-6.292 9.283-17.1 1.626-24.117z" fill="#fcad6d"/><path d="m79.942 293.824c3.056-2.801 9.144-1.381 11.776.334-.577 3.591-.61 7.265-.111 10.892l3.106 22.623c0 1.824.058 3.613.163 5.371-7.574 2.285-11.337-4.515-11.97-9.182-.273-2.009-.719-3.989-1.338-5.921-2.015-6.292-9.283-17.1-1.626-24.117z" fill="#fd995b"/><path d="m213.231 287.168c-.699-1.824-1.58-3.671-2.691-5.414-1.881-2.951-2.708-6.441-2.456-9.921.725-10.01.336-29.587-12.804-35.499-11.164-5.023-24.857-2.115-33.59.789-5.671 1.886-11.818 1.886-17.49 0-8.733-2.904-22.427-5.812-33.59-.789-13.178 5.929-13.531 25.602-12.798 35.585.254 3.454-.596 6.908-2.463 9.837-1.076 1.688-1.936 3.474-2.624 5.242-2.233 5.736-2.884 11.956-2.047 18.047l3.107 22.628c0 32.531 17.366 54.642 32.137 66.113 7.71 5.987 17.225 9.24 27.024 9.24s19.314-3.252 27.024-9.24c14.771-11.47 32.137-33.582 32.137-66.113l3.106-22.623c.827-6.031.2-12.191-1.982-17.882z" fill="#f9ba8f"/><g><path d="m169.061 393.785c-14.771-11.47-32.137-33.582-32.137-66.113l-3.107-22.628c-.836-6.091-.185-12.311 2.047-18.047.688-1.768 1.549-3.554 2.624-5.242 1.867-2.928 2.717-6.383 2.463-9.837-.663-9.027-.435-25.973 9.355-33.521-2.066-.197-4.117-.613-6.107-1.275-8.733-2.904-22.427-5.812-33.59-.789-13.178 5.929-13.531 25.602-12.798 35.585.254 3.454-.596 6.908-2.463 9.837-1.076 1.688-1.936 3.474-2.624 5.242-2.233 5.736-2.884 11.956-2.047 18.047l3.107 22.628c0 32.531 17.366 54.642 32.137 66.113 7.71 5.987 17.225 9.24 27.024 9.24 7.599 0 15.022-1.964 21.57-5.634-1.896-1.062-3.722-2.261-5.454-3.606z" fill="#fcad6d"/></g></g><path d="m277.661 89.882h-107.483c-11.434 0-20.789 9.355-20.789 20.789v85.341c0 11.434 9.355 20.789 20.789 20.789 2.923 0 4.543 3.357 2.755 5.669-1.904 2.464-4.039 4.76-6.409 6.848-4.421 3.894-1.934 11.879 3.673 11.861 14.25-.044 27.605-7.277 36.693-19.058 2.555-3.311 6.442-5.32 10.624-5.32h60.146c11.434 0 20.789-9.355 20.789-20.789v-85.341c.001-11.434-9.354-20.789-20.788-20.789z" fill="#73c3f9"/><path d="m170.178 89.882c-11.434 0-20.79 9.355-20.79 20.789v85.341c0 11.434 9.355 20.789 20.79 20.789 2.923 0 4.543 3.357 2.755 5.669-1.904 2.464-4.039 4.76-6.409 6.848-4.422 3.894-1.934 11.879 3.673 11.861 14.25-.044 27.605-7.277 36.694-19.058 2.554-3.311 6.442-5.32 10.624-5.32h6.404c-22.497-27.281 0-54.421 0-54.421v-22.165c-24.516-24.516 0-50.334 0-50.334h-53.741z" fill="#4fabf7"/><g fill="#e9efff"><ellipse cx="261.728" cy="151.299" rx="11.083" ry="11.083" transform="matrix(.383 -.924 .924 .383 21.787 335.204)"/><path d="m212.837 151.298c0 6.121 4.962 11.083 11.083 11.083s11.083-4.962 11.083-11.083-4.962-11.083-11.083-11.083c-6.122.001-11.083 4.963-11.083 11.083z"/><ellipse cx="186.111" cy="151.299" rx="11.083" ry="11.083" transform="matrix(.383 -.924 .924 .383 -24.892 265.343)"/></g><path d="m307.824 421.535c10.934 18.712 27.492 33.265 47.885 42.088 9.134 3.95 19.607 3.951 28.739 0 20.393-8.823 36.951-23.376 47.885-42.088.436-.745.862-1.506 1.289-2.265-17.129-6.639-32.947-16.057-32.947-28.347 0-4.323 0-3.028 0-5.827-7.538 6.739-20.464 15.324-31.11 15.582-10.646-.258-23.572-8.843-31.11-15.582 0 8.037 2.133 17.71-23.127 29.974-2.836 1.377-5.861 2.675-8.966 3.895.484.861.968 1.724 1.462 2.57z" fill="#fcad6d"/><path d="m338.454 385.095c0 8.037 2.133 17.71-23.127 29.974-2.836 1.377-5.861 2.675-8.966 3.895.484.862.968 1.725 1.462 2.571 7.406 12.675 17.4 23.433 29.411 31.803 20.267-14.889 27.995-37.671 30.944-52.759-10.363-.912-22.509-9.034-29.724-15.484z" fill="#fd995b"/><path d="m256 512c75.951 0 143.826-34.563 188.766-88.815-4.465-1.427-9.054-3.043-13.508-4.852-.571 1.026-1.147 2.044-1.732 3.046-10.445 17.875-26.262 31.777-45.743 40.206-8.724 3.774-18.728 3.774-27.454 0-19.48-8.428-35.298-22.331-45.743-40.206-.643-1.101-1.278-2.217-1.903-3.347-20.204 8.328-45.153 13.168-45.258 13.194-9.142 1.755-29.206 8.14-40.639 31.004-4.545 9.09-7.596 29.998-9.497 46.052 13.87 2.439 28.141 3.718 42.711 3.718z" fill="#fc90ce"/><path d="m323.75 461.094c5.777-2.531 10.832-5.626 15.256-9.102-11.621-8.028-21.278-18.39-28.421-30.614-.643-1.101-1.278-2.217-1.903-3.347-20.204 8.328-45.153 13.168-45.258 13.194-9.142 1.755-29.206 8.14-40.639 31.004-4.545 9.09-7.596 29.998-9.497 46.052 13.871 2.44 28.142 3.719 42.712 3.719 7.507 0 14.932-.351 22.267-1.012.222-31.132 3.308-31.414 45.483-49.894z" fill="#f964b2"/><path d="m424.246 274.866c-.031-1.034-.096-2.284-.217-3.681-.363-.524-.797-1.004-1.305-1.413-1.543-1.241-3.551-1.742-5.495-1.378-42.652 8.005-62.649-9.473-71.92-25.544-1.693-2.936-4.626-4.704-7.735-4.993-2.632.73-5.05 1.823-7.245 3.285-12.498 8.322-14.358 26.356-14.578 33.724-.057 1.936-.838 3.805-2.259 5.405-7.826 8.819-6.112 34.583-4.286 45.191 4.044 17.848 9.901 33.41 17.406 46.256 7.62 13.041 19.16 23.183 33.371 29.332 6.366 2.753 13.664 2.753 20.029 0 14.212-6.149 25.751-16.291 33.371-29.332 7.505-12.842 13.362-28.405 17.414-46.287 1.754-11.151 3.622-36.239-4.294-45.159-1.419-1.602-2.199-3.471-2.257-5.406z" fill="#f9ba8f"/><path d="m378.919 371.716c-7.506-12.846-13.363-28.408-17.406-46.255-1.826-10.608-3.54-36.372 4.286-45.191 1.42-1.6 2.201-3.468 2.259-5.404.072-2.431.327-6.025 1.079-10.046-11.708-5.369-19.142-13.847-23.828-21.97-1.693-2.936-4.626-4.704-7.734-4.993-2.632.73-5.05 1.823-7.246 3.285-12.498 8.322-14.358 26.357-14.578 33.724-.058 1.936-.838 3.805-2.259 5.404-7.826 8.819-6.112 34.583-4.286 45.191 4.043 17.848 9.901 33.41 17.406 46.255 7.62 13.041 19.16 23.183 33.371 29.332 6.366 2.753 13.664 2.753 20.029 0 5.867-2.539 11.271-5.768 16.139-9.591-6.923-5.436-12.758-12.084-17.232-19.741z" fill="#fcad6d"/></g></svg>