<svg id="Capa_1" enable-background="new 0 0 512 512" height="512" viewBox="0 0 512 512" width="512" xmlns="http://www.w3.org/2000/svg"><g><path d="m327.712 49.596h28.73v60.822h-28.73z" fill="#606060"/><path d="m342.077 49.596h14.365v60.822h-14.365z" fill="#554e56"/><path d="m367.169 27.759h-50.184v-2.667c.001-13.858 11.235-25.092 25.092-25.092 13.858 0 25.092 11.234 25.092 25.092z" fill="#606060"/><path d="m367.17 25.092v2.671h-17.932c-.247-6.537-3.001-12.446-7.321-16.767-3.588-3.578-8.249-6.084-13.457-6.981 3.929-2.537 8.6-4.011 13.622-4.011 6.929 0 13.199 2.805 17.736 7.342 4.547 4.547 7.352 10.816 7.352 17.746z" fill="#554e56"/><path d="m380.267 54.77h-76.379c-8.028 0-14.537-6.508-14.537-14.537 0-8.028 6.508-14.537 14.537-14.537h76.379c8.028 0 14.537 6.508 14.537 14.537-.001 8.029-6.509 14.537-14.537 14.537z" fill="#b5adb6"/><path d="m394.805 40.229c0 4.011-1.629 7.651-4.259 10.281-2.629 2.63-6.269 4.259-10.281 4.259h-20.623c4.011 0 7.651-1.629 10.281-4.259s4.259-6.269 4.259-10.281c0-8.022-6.507-14.529-14.539-14.529h20.623c8.032 0 14.539 6.507 14.539 14.529z" fill="#a79ba7"/><path d="m468.636 115.596h-77.566c-5.187 0-10.263-1.783-14.147-5.22-9.139-8.089-21.15-13.004-34.314-13.004s-25.176 4.915-34.314 13.004c-3.884 3.438-8.96 5.22-14.147 5.22h-64.941c-22.234 0-40.259 18.025-40.259 40.259v47.851c0 6.894 5.589 12.483 12.483 12.483h37.48c6.894 0 12.483-5.589 12.483-12.483v-17.954c0-4.257 3.451-7.709 7.709-7.709h30.508c5.813 0 11.313 2.475 15.302 6.703 9.448 10.015 22.841 16.267 37.696 16.267s28.248-6.252 37.696-16.267c3.989-4.228 9.489-6.703 15.302-6.703h73.029z" fill="#b5adb6"/><path d="m242.595 192.315c3.434 0 6.527-1.392 8.796-3.63v15.024c0 6.888-5.589 12.477-12.477 12.477h-37.483c-6.898 0-12.487-5.589-12.487-12.477v-23.645c0 6.888 5.589 12.477 12.487 12.477z" fill="#a79ba7"/><path d="m468.636 154.4v23.644h-73.027c-5.816 0-11.312 2.475-15.302 6.703-9.445 10.013-22.84 16.261-37.699 16.261-14.849 0-28.244-6.249-37.699-16.261-3.98-4.228-9.487-6.703-15.292-6.703h-30.512c-1.485 0-2.856.413-4.032 1.145v-17.313c0-4.259 3.454-7.476 7.713-7.476h26.831c5.805 0 11.312 2.475 15.292 6.703 9.456 10.013 22.851 16.272 37.699 16.272 14.859 0 28.254-6.259 37.699-16.272 3.991-4.228 9.487-6.703 15.302-6.703z" fill="#a79ba7"/><path d="m511.586 232.258h-23.143c-12.078 0-21.87-9.791-21.87-21.87v-127.138c0-12.078 9.791-21.87 21.87-21.87h23.143z" fill="#606060"/><path d="m490.961 61.379h20.623v170.884h-20.623z" fill="#554e56"/><path d="m243.335 268.83-22.617-27.537c-.779-.949-2.231-.949-3.01 0l-22.618 27.537c-3.855 5.079-6.143 11.412-6.143 18.28-.001 16.765 13.394 30.209 30.159 30.266 16.764.058 30.371-13.515 30.371-30.265.001-6.868-2.287-13.202-6.142-18.281z" fill="#8ac9fe"/><path d="m249.48 287.116c0 16.746-13.611 30.316-30.378 30.265-3.815-.011-7.455-.722-10.807-2.011 11.353-4.362 19.417-15.364 19.417-28.254 0-6.878-2.289-13.209-6.146-18.283l-13.24-16.128 9.384-11.415c.773-.949 2.227-.949 3.011 0l22.613 27.542c3.856 5.075 6.146 11.406 6.146 18.284z" fill="#60b7ff"/><path d="m334.505 347.481c-3.443-8.6-12.915-13.111-21.762-10.365l-87.012 32.827-61.236 21.836-3.077 23.745 71.123-6.786 91.829-38.063c9.259-3.55 13.82-13.99 10.135-23.194z" fill="#d88a55"/><path d="m324.366 370.676-91.825 38.06-68.046 6.787v-23.75l6.981-2.485 2.598 2.774h44.413c5.126 0 10.202-1.01 14.937-2.973l84.663-35.087c6.094-2.351 10.157-7.672 11.157-13.673 2.268 1.836 4.104 4.269 5.259 7.156 3.691 9.198-.877 19.643-10.137 23.191z" fill="#c57a44"/><path d="m386.501 367.256c-4.65-10.23-16.435-15.102-26.951-11.143l-121.08 49.922c-4.746 1.787-9.775 2.702-14.847 2.702h-50.78l43.167-25.63c10.91-6.478 13.661-21.058 5.863-31.066-6.169-7.917-17.065-10.383-26.041-5.894l-65.532 32.766-26.146-5.904c-29.519-4.217-53.978 22.772-53.978 22.772l-42.223 7.591v88.262h70.756c37.909 0 74.503 22.989 112.185 6.067 25.403-11.408 156.944-88.524 185.512-102.419 10.405-5.062 14.883-17.493 10.095-28.026z" fill="#f6a96c"/><path d="m376.409 395.279c-28.574 13.9-160.109 91.01-185.516 102.425-37.679 16.922-74.275-6.073-112.18-6.073h-70.761v-20.52h63.398c37.906 0 74.501 22.985 112.18 6.063 25.408-11.405 156.943-88.515 185.516-102.415 6.259-3.052 10.373-8.765 11.611-15.127 2.434 1.99 4.455 4.568 5.847 7.62 4.785 10.538.309 22.964-10.095 28.027z" fill="#ea9b58"/><path d="m226.323 364.963c0 7.146-3.619 14.168-10.312 18.149l-73.903 43.876-6.507 3.844-1.474-3.112c-4.51-9.52-.973-20.908 8.136-26.198l64.9-37.693c6.032-3.578 9.579-9.652 10.219-16.055 1.67 1.165 3.186 2.599 4.486 4.269 3.022 3.866 4.455 8.414 4.455 12.92z" fill="#ea9b58"/><path d="m41.505 512h-35.796c-2.925 0-5.296-2.371-5.296-5.296v-139.892c0-2.925 2.371-5.296 5.296-5.296h35.795c2.925 0 5.296 2.371 5.296 5.296v139.893c0 2.924-2.371 5.295-5.295 5.295z" fill="#ed74b7"/><path d="m46.798 366.809v139.898c0 2.918-2.372 5.29-5.29 5.29h-19.932c2.918 0 5.29-2.372 5.29-5.29v-139.898c0-2.918-2.372-5.29-5.29-5.29h19.932c2.918 0 5.29 2.371 5.29 5.29z" fill="#e759aa"/></g></svg>